<svg xmlns="http://www.w3.org/2000/svg" xmlns:xlink="http://www.w3.org/1999/xlink" width="500" zoomAndPan="magnify" viewBox="0 0 375 374.999991" height="500" preserveAspectRatio="xMidYMid meet" version="1.0"><defs><filter x="0%" y="0%" width="100%" height="100%" id="3f5a000825"><feColorMatrix values="0 0 0 0 1 0 0 0 0 1 0 0 0 0 1 0 0 0 1 0" color-interpolation-filters="sRGB"/></filter><mask id="b3a80de372"><g filter="url(#3f5a000825)"><rect x="-37.5" width="450" fill="#000000" y="-37.499999" height="449.999989" fill-opacity="0.16"/></g></mask><clipPath id="2261f01313"><path d="M 0.484375 0.0859375 L 240.484375 0.0859375 L 240.484375 219.160156 L 0.484375 219.160156 Z M 0.484375 0.0859375 " clip-rule="nonzero"/></clipPath><clipPath id="1c332b876a"><rect x="0" width="241" y="0" height="220"/></clipPath><clipPath id="e43286f492"><path d="M 360.242188 359.375 L 367.1875 359.375 L 367.1875 366.320312 L 360.242188 366.320312 Z M 360.242188 359.375 " clip-rule="nonzero"/></clipPath><clipPath id="2581da6030"><path d="M 363.714844 359.375 C 361.796875 359.375 360.242188 360.929688 360.242188 362.847656 C 360.242188 364.765625 361.796875 366.320312 363.714844 366.320312 C 365.632812 366.320312 367.1875 364.765625 367.1875 362.847656 C 367.1875 360.929688 365.632812 359.375 363.714844 359.375 Z M 363.714844 359.375 " clip-rule="nonzero"/></clipPath><clipPath id="1eecee80a2"><path d="M 0.242188 0.375 L 7.1875 0.375 L 7.1875 7.320312 L 0.242188 7.320312 Z M 0.242188 0.375 " clip-rule="nonzero"/></clipPath><clipPath id="3a0caeccf5"><path d="M 3.714844 0.375 C 1.796875 0.375 0.242188 1.929688 0.242188 3.847656 C 0.242188 5.765625 1.796875 7.320312 3.714844 7.320312 C 5.632812 7.320312 7.1875 5.765625 7.1875 3.847656 C 7.1875 1.929688 5.632812 0.375 3.714844 0.375 Z M 3.714844 0.375 " clip-rule="nonzero"/></clipPath><clipPath id="fc98d61edd"><rect x="0" width="8" y="0" height="8"/></clipPath></defs><g mask="url(#b3a80de372)"><g transform="matrix(1, 0, 0, 1, 67, 77)"><g clip-path="url(#1c332b876a)"><g clip-path="url(#2261f01313)"><path fill="#873100" d="M 232.53125 134.953125 C 223.308594 131.78125 214.851562 129.667969 206.78125 128.707031 C 210.046875 117.753906 214.46875 104.6875 228.6875 88.734375 L 234.835938 81.816406 L 225.613281 81.914062 C 214.371094 82.007812 203.800781 82.96875 193.808594 84.988281 C 192.464844 73.554688 189.484375 61.351562 184.96875 48.378906 L 183.625 44.535156 L 179.78125 45.785156 C 167.097656 50.011719 155.855469 55.203125 146.4375 61.445312 C 144.902344 59.332031 143.363281 57.316406 141.828125 55.296875 C 134.8125 45.976562 128.277344 37.328125 124.242188 29.640625 L 120.589844 22.820312 L 116.941406 29.640625 C 112.808594 37.328125 106.273438 46.074219 99.355469 55.296875 C 97.820312 57.316406 96.28125 59.429688 94.742188 61.445312 C 85.230469 55.203125 74.085938 50.011719 61.402344 45.785156 L 57.558594 44.535156 L 56.214844 48.378906 C 51.699219 61.445312 48.71875 73.648438 47.375 84.988281 C 37.476562 82.96875 26.8125 81.914062 15.570312 81.914062 L 6.34375 81.816406 L 12.496094 88.734375 C 26.714844 104.6875 31.136719 117.753906 34.402344 128.707031 C 26.425781 129.667969 17.875 131.78125 8.652344 134.953125 L 0.484375 137.835938 L 7.785156 142.351562 C 14.703125 146.675781 20.949219 156.859375 25.945312 165.027344 C 27.484375 167.527344 28.925781 169.832031 30.269531 171.945312 C 35.554688 179.730469 41.800781 186.742188 48.71875 192.027344 C 51.410156 194.140625 54.292969 195.96875 57.175781 197.503906 C 55.539062 193.949219 54.195312 189.335938 53.621094 185.398438 C 47.46875 180.691406 41.800781 174.445312 37.09375 167.332031 C 35.84375 165.507812 34.5 163.203125 32.960938 160.703125 C 28.925781 154.074219 24.121094 146.195312 18.355469 140.429688 C 24.890625 138.507812 31.039062 137.257812 36.804688 136.683594 C 43.144531 155.804688 52.273438 168.488281 64.285156 176.558594 C 66.496094 175.019531 68.898438 172.90625 70.820312 170.984375 C 59.097656 163.777344 50.257812 151.863281 44.203125 132.933594 C 43.820312 131.6875 43.242188 129.765625 42.664062 127.9375 C 39.496094 117.464844 35.84375 105.167969 24.410156 90.273438 C 41.609375 91.234375 56.980469 94.691406 70.433594 101.226562 C 62.363281 121.019531 61.691406 141.871094 78.601562 162.53125 C 81.101562 159.550781 83.117188 156.859375 83.886719 155.417969 C 68.128906 134.183594 72.546875 112.949219 83.308594 93.347656 C 89.554688 81.816406 98.011719 70.574219 105.792969 60.199219 C 111.175781 52.992188 116.363281 46.167969 120.496094 39.636719 C 124.628906 46.167969 129.71875 52.992188 135.195312 60.199219 C 143.074219 70.671875 151.433594 81.816406 157.679688 93.347656 C 168.347656 113.046875 172.863281 134.183594 157.105469 155.417969 C 157.871094 156.859375 159.890625 159.550781 162.390625 162.53125 C 179.300781 141.871094 178.53125 121.019531 170.554688 101.226562 C 183.914062 94.691406 199.382812 91.234375 216.582031 90.273438 C 205.148438 105.167969 201.398438 117.464844 198.324219 127.9375 C 197.75 129.859375 197.171875 131.6875 196.789062 132.933594 C 190.734375 151.863281 181.894531 163.777344 170.171875 170.984375 C 172.191406 172.90625 174.496094 175.019531 176.707031 176.558594 C 188.8125 168.390625 197.84375 155.707031 204.1875 136.683594 C 209.953125 137.257812 216.101562 138.507812 222.636719 140.429688 C 216.964844 146.195312 212.160156 154.074219 208.03125 160.703125 C 206.492188 163.203125 205.050781 165.507812 203.898438 167.332031 C 199.191406 174.347656 193.519531 180.59375 187.371094 185.398438 C 186.792969 189.335938 185.449219 193.949219 183.816406 197.503906 C 186.699219 195.96875 189.582031 194.140625 192.273438 192.027344 C 199.191406 186.742188 205.53125 179.730469 210.71875 171.945312 C 212.160156 169.832031 213.507812 167.527344 215.042969 165.027344 C 220.039062 156.859375 226.285156 146.675781 233.203125 142.351562 L 240.507812 137.835938 Z M 76.199219 89.503906 C 75.429688 90.945312 74.664062 92.386719 73.988281 93.828125 C 68.128906 91.042969 61.980469 88.734375 55.445312 86.910156 C 56.5 77.011719 58.902344 66.347656 62.652344 55.007812 C 72.933594 58.660156 82.0625 62.984375 89.84375 68.078125 C 84.945312 74.996094 80.140625 82.105469 76.199219 89.503906 Z M 167.191406 93.730469 C 166.519531 92.289062 165.75 90.847656 164.984375 89.40625 C 160.949219 82.007812 156.238281 74.898438 151.242188 68.078125 C 159.027344 62.984375 168.152344 58.5625 178.433594 54.914062 C 182.183594 66.25 184.585938 76.917969 185.640625 86.8125 C 179.300781 88.640625 173.054688 90.945312 167.191406 93.730469 Z M 77.929688 28.105469 C 77.929688 24.839844 80.523438 22.242188 83.789062 22.242188 C 87.058594 22.242188 89.652344 24.839844 89.652344 28.105469 C 89.652344 31.371094 87.058594 33.964844 83.789062 33.964844 C 80.621094 33.964844 77.929688 31.371094 77.929688 28.105469 Z M 151.433594 28.105469 C 151.433594 24.839844 154.03125 22.242188 157.296875 22.242188 C 160.5625 22.242188 163.15625 24.839844 163.15625 28.105469 C 163.15625 31.371094 160.5625 33.964844 157.296875 33.964844 C 154.125 33.964844 151.433594 31.371094 151.433594 28.105469 Z M 114.730469 6.003906 C 114.730469 2.738281 117.324219 0.144531 120.589844 0.144531 C 123.859375 0.144531 126.453125 2.738281 126.453125 6.003906 C 126.453125 9.273438 123.859375 11.867188 120.589844 11.867188 C 117.324219 11.867188 114.730469 9.273438 114.730469 6.003906 Z M 181.511719 181.84375 C 181.703125 182.324219 181.316406 182.996094 180.742188 183.667969 C 179.203125 185.207031 175.648438 186.070312 173.632812 185.878906 C 167.960938 185.398438 160.5625 180.015625 157.296875 177.328125 C 145.667969 168.007812 143.074219 162.53125 142.210938 160.894531 C 141.441406 159.453125 140.191406 143.410156 138.945312 140.429688 C 135.582031 145.425781 132.601562 150.613281 132.601562 161.472656 C 132.601562 174.15625 139.230469 180.304688 143.363281 190.972656 C 148.457031 189.335938 153.933594 187.894531 159.601562 187.03125 C 171.230469 185.207031 185.832031 183.765625 174.6875 199.714844 C 169.789062 206.730469 159.3125 209.324219 151.914062 211.246094 C 150.667969 211.535156 149.320312 211.820312 147.878906 212.207031 C 156.144531 213.457031 164.117188 214.800781 165.367188 215.378906 C 167.960938 216.722656 169.210938 220.855469 136.0625 218.066406 L 133.949219 217.875 C 133.949219 217.875 133.273438 217.777344 132.027344 217.683594 C 127.507812 217.296875 123.761719 216.914062 120.589844 216.53125 C 117.421875 216.914062 113.671875 217.296875 109.15625 217.683594 C 107.90625 217.777344 107.234375 217.875 107.234375 217.875 L 105.121094 218.066406 C 71.875 220.855469 73.222656 216.722656 75.816406 215.378906 C 76.96875 214.703125 85.039062 213.457031 93.207031 212.207031 C 91.765625 211.917969 90.421875 211.628906 89.171875 211.246094 C 81.675781 209.324219 71.300781 206.730469 66.398438 199.714844 C 55.253906 183.859375 69.859375 185.207031 81.484375 187.03125 C 87.152344 187.894531 92.628906 189.335938 97.722656 190.972656 C 101.949219 180.304688 108.484375 174.058594 108.484375 161.472656 C 108.484375 150.613281 105.503906 145.425781 102.144531 140.429688 C 100.894531 143.503906 99.644531 159.453125 98.875 160.894531 C 98.011719 162.433594 95.417969 167.910156 83.789062 177.328125 C 80.523438 180.015625 73.125 185.496094 67.457031 185.878906 C 65.4375 186.070312 61.882812 185.207031 60.34375 183.667969 C 59.671875 182.996094 59.289062 182.324219 59.578125 181.84375 C 59.960938 181.074219 62.363281 181.457031 67.648438 183.285156 C 72.355469 183.285156 89.363281 164.355469 90.996094 159.359375 C 91.765625 157.050781 91.574219 150.230469 91.957031 135.53125 C 92.34375 120.828125 97.722656 117.847656 105.410156 115.640625 C 113.097656 113.332031 115.785156 105.648438 115.785156 105.648438 C 116.074219 104.398438 116.074219 103.339844 116.074219 102.859375 C 115.980469 101.417969 114.441406 98.632812 112.710938 96.613281 C 110.984375 94.597656 106.179688 85.277344 108.003906 76.628906 C 109.828125 67.882812 118.476562 67.210938 120.496094 67.210938 C 122.511719 67.210938 131.066406 67.980469 132.988281 76.628906 C 134.8125 85.371094 130.007812 94.597656 128.375 96.613281 C 126.644531 98.632812 125.105469 101.324219 125.011719 102.859375 C 125.011719 103.339844 125.105469 104.398438 125.300781 105.648438 C 125.300781 105.648438 127.894531 113.332031 135.675781 115.640625 C 143.363281 117.945312 148.839844 120.828125 149.128906 135.53125 C 149.511719 150.230469 149.320312 157.050781 150.089844 159.359375 C 151.628906 164.355469 168.730469 183.285156 173.4375 183.285156 C 178.722656 181.457031 181.125 181.171875 181.511719 181.84375 Z M 181.511719 181.84375 " fill-opacity="1" fill-rule="nonzero"/></g></g></g></g><g clip-path="url(#e43286f492)"><g clip-path="url(#2581da6030)"><g transform="matrix(1, 0, 0, 1, 360, 359)"><g clip-path="url(#fc98d61edd)"><g clip-path="url(#1eecee80a2)"><g clip-path="url(#3a0caeccf5)"><path fill="#ffffff" d="M 0.242188 0.375 L 7.1875 0.375 L 7.1875 7.320312 L 0.242188 7.320312 Z M 0.242188 0.375 " fill-opacity="1" fill-rule="nonzero"/></g></g></g></g></g></g></svg>